{"title":"MasterChef.Australia.S05E65.H264.VKU","uid":8873582,"size":927007537,"categoryP":"video","categoryS":"tv_shows","magnet":"?xt=urn:btih:cb37abab2f0675f944c0f0acfd69815d90cc24ac&amp;dn=MasterChef.Australia.S05E65.H264.VKU&amp;tr=udp%3A%2F%2Ftracker.openbittorrent.com%3A80&amp;tr=udp%3A%2F%2Fopen.demonii.com%3A1337&amp;tr=udp%3A%2F%2Ftracker.coppersurfer.tk%3A6969&amp;tr=udp%3A%2F%2Fexodus.desync.com%3A6969","seeders":1,"leechers":0,"uploader":"kurd_Viva","files":1,"time":1378134850,"description":"\n      Format : MPEG-4\n      Format profile : Base Media\n      Codec ID : isom\n      File size : 884 MiB\n      Duration : 1h 41mn\n      Overall bit rate mode : Variable\n      Overall bit rate : 1 217 Kbps\n      Writing application : Lavf52.93.0\n\n   Video #1\n      ID : 1\n      Format : AVC\n      Format/Info : Advanced Video Codec\n      Format profile : &lt;a class=&quot;__cf_email__&quot; href=&quot;/cdn-cgi/l/email-protection&quot; data-cfemail=&quot;cc84a5aba48c80ffe2fc&quot;&gt;[email&amp;#160;protected]&lt;/a&gt;&lt;script cf-hash='f9e31' type=&quot;text/javascript&quot;&gt;\n/* &lt;![CDATA[ */!function(){try{var t=&quot;currentScript&quot;in document?document.currentScript:function(){for(var t=document.getElementsByTagName(&quot;script&quot;),e=t.length;e--;)if(t[e].getAttribute(&quot;cf-hash&quot;))return t[e]}();if(t&amp;&amp;t.previousSibling){var e,r,n,i,c=t.previousSibling,a=c.getAttribute(&quot;data-cfemail&quot;);if(a){for(e=&quot;&quot;,r=parseInt(a.substr(0,2),16),n=2;a.length-n;n+=2)i=parseInt(a.substr(n,2),16)^r,e+=String.fromCharCode(i);e=document.createTextNode(e),c.parentNode.replaceChild(e,c)}}}catch(u){}}();/* ]]&gt; */&lt;/script&gt;\n      Format settings, CABAC : Yes\n      Format settings, ReFrames : 3 frames\n      Codec ID : avc1\n      Codec ID/Info : Advanced Video Coding\n      Duration : 1h 41mn\n      Bit rate : 1 106 Kbps\n      Width : 640 pixels\n      Height : 352 pixels\n      Display aspect ratio : 16:9\n      Frame rate mode : Constant\n      Frame rate : 25.000 fps\n      Color space : YUV\n      Chroma subsampling : 4:2:0\n      Bit depth : 8 bits\n      Scan type : Progressive\n      Bits/(Pixel*Frame) : 0.196\n      Stream size : 809 MiB (92%)\n      Writing library : x264 core 112\n  \n   Audio #2\n      ID : 2\n      Format : AAC\n      Format/Info : Advanced Audio Codec\n      Format profile : LC\n      Codec ID : 40\n      Duration : 1h 41mn\n      Bit rate mode : Variable\n      Bit rate : 96.0 Kbps\n      Channel(s) : 2 channels\n      Channel positions : Front: L R\n      Sampling rate : 48.0 KHz\n      Compression mode : Lossy\n      Delay relative to video : 40ms\n      Stream size : 70.9 MiB (8%)\n   ","torrent":{"xt":"urn:btih:cb37abab2f0675f944c0f0acfd69815d90cc24ac","amp;dn":"MasterChef.Australia.S05E65.H264.VKU","amp;tr":["udp%3A%2F%2Ftracker.openbittorrent.com%3A80","udp%3A%2F%2Fopen.demonii.com%3A1337","udp%3A%2F%2Ftracker.coppersurfer.tk%3A6969","udp%3A%2F%2Fexodus.desync.com%3A6969"],"infoHash":"cb37abab2f0675f944c0f0acfd69815d90cc24ac","infoHashBuffer":{"type":"Buffer","data":[203,55,171,171,47,6,117,249,68,192,240,172,253,105,129,93,144,204,36,172]},"announce":[],"urlList":[]}}